<svg id="Logo2" xmlns="http://www.w3.org/2000/svg" xmlns:xlink="http://www.w3.org/1999/xlink" width="48" height="48" viewBox="0 0 48 48">
  <defs>
    <clipPath id="clip-path">
      <path id="パス_62" data-name="パス 62" d="M21.344,45.544a21.576,21.576,0,1,1,2.682.166,21.6,21.6,0,0,1-2.682-.166M.184,21.049A24,24,0,1,0,26.95.185,24.269,24.269,0,0,0,23.97,0,24,24,0,0,0,.184,21.049" transform="translate(0 0)" fill="none"/>
    </clipPath>
    <linearGradient id="linear-gradient" x1="0.066" y1="0.911" x2="0.068" y2="0.911" gradientUnits="objectBoundingBox">
      <stop offset="0" stop-color="#9d7e53"/>
      <stop offset="1" stop-color="#d4b895"/>
    </linearGradient>
    <clipPath id="clip-path-2">
      <rect id="長方形_8" data-name="長方形 8" width="47.914" height="47.914" fill="none"/>
    </clipPath>
  </defs>
  <g id="グループ_9" data-name="グループ 9">
    <g id="グループ_8" data-name="グループ 8" transform="translate(0 0)" clip-path="url(#clip-path)">
      <path id="パス_96" data-name="パス 96" d="M3.009,4.7H58.337V61.282H3.009Z" transform="translate(-12.511 51.106) rotate(-82.937)" fill="url(#linear-gradient)"/>
    </g>
  </g>
  <g id="グループ_11" data-name="グループ 11" transform="translate(0 0.086)">
    <g id="グループ_10" data-name="グループ 10" clip-path="url(#clip-path-2)">
      <path id="パス_63" data-name="パス 63" d="M60.715,174.845c.176,1.985-.744,4.306-3.266,4.284-1.368-.012-3.778-.877-4.152-3.014-.8-4.6,1.3-4.257,2.765-4.257,2.233,0,4.5,1.268,4.652,2.987" transform="translate(-47.131 -152.507)" fill="#815823"/>
      <path id="パス_64" data-name="パス 64" d="M62.964,160.179c.682,2.047-.621,4.17-3.846,3.908a4.073,4.073,0,0,1-3.463-3.771,2.919,2.919,0,0,1,2.657-3.125,4.861,4.861,0,0,1,4.652,2.987" transform="translate(-49.38 -139.5)" fill="#cea76a"/>
      <path id="パス_65" data-name="パス 65" d="M132.819,100.358c-.3,2.035-1.3,3.638-3.6,3.639-2.54,0-4.538-2.317-4.538-5.113,0-4.744,2.372-2.729,4.191-2.729s4.7-.865,3.943,4.2" transform="translate(-110.627 -84.969)" fill="#815823"/>
      <path id="パス_66" data-name="パス 66" d="M135.113,86.151a3.459,3.459,0,0,1-3.6,3.639c-1.95.076-4.246-2.318-4.246-4.376,0-2.556,2.081-3.466,3.9-3.466s3.943,2.145,3.943,4.2" transform="translate(-112.921 -72.74)" fill="#cea76a"/>
      <path id="パス_67" data-name="パス 67" d="M231.969,101.159c-.228,3.024-1.921,5.092-5,4.59a4.234,4.234,0,0,1-3.409-4.622c.476-4.62,2.512-2.7,4.289-3,1.6-.274,4.348-.036,4.116,3.033" transform="translate(-198.339 -86.964)" fill="#815823"/>
      <path id="パス_68" data-name="パス 68" d="M235.881,84.7a4.377,4.377,0,0,1-5.286,4.333,3.311,3.311,0,0,1-2.643-3.444c0-1.974,2.036-3.619,3.813-3.922,1.6-.274,4.116,1.059,4.116,3.033" transform="translate(-202.251 -72.46)" fill="#cea76a"/>
      <path id="パス_69" data-name="パス 69" d="M300.329,172.233a3.691,3.691,0,0,0,3.4,3.793c2.7,0,5.169-1.446,4.52-4.97-.749-4.065-2.97-1.947-3.783-1.947-1.95,0-3.683-1.423-4.133,3.124" transform="translate(-266.456 -149.584)" fill="#815823"/>
      <path id="パス_70" data-name="パス 70" d="M304.422,160.651c0,1.845,1.126,3.459,2.946,3.459,2.86,0,4.071-1.737,4.2-3.577.173-2.422-2.653-3.34-3.466-3.34a3.676,3.676,0,0,0-3.683,3.459" transform="translate(-270.099 -139.5)" fill="#cea76a"/>
      <path id="パス_71" data-name="パス 71" d="M130.178,219.43c2.454,1.342-2.073-5.982-7.639-5.765-5.569.073-.916,11.285-8.057,6.143-1.964-1.414-5.795,6.37.323,8.3,4.1,1.294,5.984-2.426,8.08-1.944,3.345.831,6.637,4.477,10.35-.119,5.192-6.425-7-8.773-3.058-6.617" transform="translate(-98.913 -189.601)" fill="#815823"/>
      <path id="パス_72" data-name="パス 72" d="M133.373,203.911c-1.571-2.314-2.073-5.982-7.639-5.765-5.569.073-5.88,3.763-7.328,6.156-1.075,1.775-5.276,2.418-2.24,6.3,3,3.84,8.134-.817,9.882-.419,2.312-.281,7.093,3.894,9.89-.1,2.83-4.037-1.4-4.46-2.565-6.177" transform="translate(-102.107 -175.828)" fill="#cea76a"/>
    </g>
  </g>
</svg>
