<svg xmlns="http://www.w3.org/2000/svg" xmlns:xlink="http://www.w3.org/1999/xlink" width="510.22" height="364.218" viewBox="0 0 510.22 364.218">
  <defs>
    <clipPath id="clip-path">
      <rect id="長方形_71" data-name="長方形 71" width="510.22" height="364.218" fill="#254653"/>
    </clipPath>
  </defs>
  <g id="map" clip-path="url(#clip-path)">
    <path id="パス_198" data-name="パス 198" d="M415.475,146.964a22.147,22.147,0,1,1,22.245-22.15,22.226,22.226,0,0,1-22.245,22.15m0-44.931a22.784,22.784,0,1,0,22.884,22.781,22.862,22.862,0,0,0-22.884-22.781" fill="#254653"/>
    <path id="パス_199" data-name="パス 199" d="M415.475,110.372c-.747,3.384-1.495,10.758-2.243,14.142l-3.875,10.577.136.2,5.982-3.618,6.013,3.618.1-.2-3.873-10.577c-.745-3.384-1.495-10.758-2.243-14.142" fill="#254653"/>
    <path id="パス_200" data-name="パス 200" d="M421.879,84.067c-.232,0-.662.055-1.735.055-1.143,0-1.712-.055-1.963-.055l-.106.106v.464l.106.123h.57a.955.955,0,0,1,.983.694,20.815,20.815,0,0,1,.217,2.739c.033.889.052,1.76.052,3.34V93.65h-.071c-.431-.567-3.449-4.249-3.643-4.5l-3.753-4.835a.621.621,0,0,0-.518-.231c-.211,0-.586.038-1.194.038s-1-.018-1.269-.038c-.269,0-.411-.017-.5-.017l-.108.106v.464l.108.123.733.019c.642.018,1.177.605,1.177,1.653v3.024c0,3.163-.034,5.19-.072,5.528-.09.871-.284,1.085-.8,1.085h-.611l-.105.106v.462l.09.126c.181,0,1.411-.055,1.785-.055.484,0,1.553.055,1.734.055l.142-.143v-.392l-.142-.159h-.536c-.481,0-.59-.337-.663-1.032-.034-.356-.176-3.254-.176-4.907V86.181h.108c.107.143,3.392,4.253,3.589,4.429.107.108,1.409,1.743,2.66,3.288l2.178,2.739c.056.071.215.285.431.285.07,0,.086-.177.086-.427V89.846c0-1.156,0-2.915.073-4.11.037-.674.215-.976.7-.976h.482l.108-.123v-.445Z" fill="#254653"/>
    <path id="パス_201" data-name="パス 201" d="M310.266,161.571a4.167,4.167,0,1,1-3.43,4.807,4.177,4.177,0,0,1,3.43-4.807m2.765,16.267a12.334,12.334,0,1,0-14.287-10.084,12.364,12.364,0,0,0,14.287,10.084" fill="#254653"/>
    <path id="パス_202" data-name="パス 202" d="M91.434,303.216,135.114,1.5Z" fill="#254653"/>
    <rect id="長方形_60" data-name="長方形 60" width="304.861" height="1" transform="translate(90.816 303.126) rotate(-81.716)" fill="#254653"/>
    <line id="線_29" data-name="線 29" x1="91.434" y2="57.285" transform="translate(0 303.216)" fill="#1a1311"/>
    <rect id="長方形_61" data-name="長方形 61" width="2.834" height="265.526" transform="matrix(0.546, -0.838, 0.838, 0.546, 280.574, 117.022)" fill="#254653"/>
    <rect id="長方形_62" data-name="長方形 62" width="255.602" height="2.834" transform="matrix(0.509, -0.861, 0.861, 0.509, 377.624, 359.783)" fill="#254653"/>
    <rect id="長方形_63" data-name="長方形 63" width="2.834" height="59.153" transform="translate(324.204 144.695) rotate(-0.653)" fill="#254653"/>
    <path id="パス_203" data-name="パス 203" d="M365.261,214.612l-39.928-26.054,1.549-2.374L364.56,210.77l20.222-27.638,2.288,1.673Z" fill="#254653"/>
    <rect id="長方形_64" data-name="長方形 64" width="2.835" height="130.402" transform="matrix(0.733, -0.68, 0.68, 0.733, 325.255, 204.792)" fill="#254653"/>
    <path id="パス_204" data-name="パス 204" d="M399.078,325.249,315.66,215.871l9.494-12.884,2.281,1.682L319.2,215.841,401.332,323.53Z" fill="#254653"/>
    <line id="線_30" data-name="線 30" x1="13.211" y2="94.136" transform="translate(52.865 181.001)" fill="#1a1311"/>
    <rect id="長方形_65" data-name="長方形 65" width="95.058" height="10" transform="translate(47.912 274.442) rotate(-82.01)" fill="#254653"/>
    <line id="線_31" data-name="線 31" x1="36.102" y2="179.5" transform="translate(66.075 1.501)" fill="#1a1311"/>
    <path id="パス_205" data-name="パス 205" d="M101,8.883a1.5,1.5,0,0,1-1.472-1.8L100.706,1.2a1.5,1.5,0,1,1,2.941.592l-1.182,5.882A1.5,1.5,0,0,1,101,8.883" fill="#254653"/>
    <path id="パス_206" data-name="パス 206" d="M69.509,165.437a1.5,1.5,0,0,1-1.472-1.8l2.249-11.183a1.5,1.5,0,0,1,2.941.592l-2.248,11.183a1.5,1.5,0,0,1-1.47,1.2m4.5-22.364a1.544,1.544,0,0,1-.3-.03,1.5,1.5,0,0,1-1.174-1.767l2.25-11.182a1.5,1.5,0,1,1,2.94.592l-2.248,11.182a1.5,1.5,0,0,1-1.47,1.205m4.5-22.365a1.545,1.545,0,0,1-.3-.03,1.5,1.5,0,0,1-1.174-1.766l2.25-11.183a1.5,1.5,0,1,1,2.94.592L79.974,119.5a1.5,1.5,0,0,1-1.469,1.205M83,98.343a1.529,1.529,0,0,1-.3-.03,1.5,1.5,0,0,1-1.174-1.766L83.78,85.364a1.5,1.5,0,1,1,2.941.592L84.472,97.139A1.5,1.5,0,0,1,83,98.343m4.5-22.365a1.5,1.5,0,0,1-1.472-1.8L88.278,63a1.5,1.5,0,0,1,2.941.592L88.97,74.774a1.5,1.5,0,0,1-1.469,1.2M92,53.614a1.5,1.5,0,0,1-1.472-1.8l2.249-11.182a1.5,1.5,0,1,1,2.941.592L93.468,52.409A1.5,1.5,0,0,1,92,53.614m4.5-22.365a1.5,1.5,0,0,1-1.472-1.8L97.274,18.27a1.5,1.5,0,1,1,2.941.592L97.966,30.044a1.5,1.5,0,0,1-1.469,1.2" fill="#254653"/>
    <path id="パス_207" data-name="パス 207" d="M66.077,182.5a1.5,1.5,0,0,1-1.472-1.8l1.183-5.882a1.5,1.5,0,1,1,2.941.592L67.546,181.3a1.5,1.5,0,0,1-1.469,1.205" fill="#254653"/>
    <line id="線_32" data-name="線 32" x1="7.148" y2="87.581" transform="translate(45.717 275.137)" fill="#1a1311"/>
    <path id="パス_208" data-name="パス 208" d="M52.378,282.617c-.041,0-.082,0-.124-.005a1.5,1.5,0,0,1-1.373-1.617l.489-5.98a1.5,1.5,0,1,1,2.99.244l-.488,5.98a1.5,1.5,0,0,1-1.494,1.378" fill="#254653"/>
    <path id="パス_209" data-name="パス 209" d="M47.089,347.435c-.041,0-.082,0-.124-.005a1.5,1.5,0,0,1-1.373-1.617l.881-10.8a1.5,1.5,0,0,1,2.991.244l-.882,10.8a1.5,1.5,0,0,1-1.493,1.378m1.763-21.606c-.041,0-.082,0-.124-.005a1.5,1.5,0,0,1-1.373-1.617l.882-10.8a1.5,1.5,0,0,1,2.99.244l-.882,10.8a1.5,1.5,0,0,1-1.493,1.378m1.763-21.606c-.041,0-.082,0-.124-.005a1.5,1.5,0,0,1-1.373-1.617L50,291.8a1.5,1.5,0,1,1,2.99.244l-.881,10.8a1.5,1.5,0,0,1-1.494,1.378" fill="#254653"/>
    <path id="パス_210" data-name="パス 210" d="M45.718,364.218c-.041,0-.082,0-.124,0a1.5,1.5,0,0,1-1.373-1.617l.489-5.981a1.5,1.5,0,1,1,2.99.245l-.488,5.98a1.5,1.5,0,0,1-1.494,1.378" fill="#254653"/>
    <path id="パス_211" data-name="パス 211" d="M171.682,139.236l-2.715-.816,13.887-46.186-57.681-15.8.733-2.738,155.8,40.77-.716,2.742L185.8,92.3Z" fill="#254653"/>
    <path id="パス_212" data-name="パス 212" d="M216.086,97.54l-2.746-.7,12.38-48.343H194.892l-8-29.513-34.917-16.2L153.164.215l36.114,16.75,7.782,28.694h29.385l.033-.123,1.144.123h1.75l-.047.184,18.156,1.963-5.718,29.63L238.98,76.9l5.133-26.605-15.5-1.675Z" fill="#254653"/>
    <path id="パス_213" data-name="パス 213" d="M282.727,116.156l-2.76-.645L297.732,39.46h23.5L339.1,19.693l2.8-18.4,2.8.427L341.771,20.96,322.493,42.294H299.98Z" fill="#254653"/>
    <rect id="長方形_66" data-name="長方形 66" width="86.211" height="2.835" transform="matrix(0.293, -0.956, 0.956, 0.293, 172.041, 227.653)" fill="#254653"/>
    <path id="パス_214" data-name="パス 214" d="M211.916,226.067l-34.828-9.959.779-2.726L211.6,223.03l8.343-4.365,21.781-70.675,2.709.835-22.128,71.8Z" fill="#254653"/>
    <path id="パス_215" data-name="パス 215" d="M264.2,191.269l-31.542-8.9.77-2.727,29.944,8.452,51.09-51.033,2,2Z" fill="#254653"/>
    <path id="パス_216" data-name="パス 216" d="M207.777,261.9l-1.771-2.213,24.683-19.762v-7.436l.135-.287,21.659-45.954,2.565,1.209-21.525,45.667v8.163Z" fill="#254653"/>
    <rect id="長方形_67" data-name="長方形 67" width="2.835" height="116.834" transform="matrix(0.776, -0.63, 0.63, 0.776, 215.345, 254.038)" fill="#254653"/>
    <rect id="長方形_68" data-name="長方形 68" width="29.999" height="2.834" transform="matrix(0.832, -0.555, 0.555, 0.832, 264.369, 359.32)" fill="#254653"/>
    <path id="パス_217" data-name="パス 217" d="M380.576,356.529,341.61,305.908l-50.642,39.05-1.731-2.245,52.889-40.782,40.7,52.869Z" fill="#254653"/>
    <rect id="長方形_69" data-name="長方形 69" width="304.862" height="2.835" transform="translate(90.043 303.016) rotate(-81.767)" fill="#254653"/>
    <rect id="長方形_70" data-name="長方形 70" width="97.448" height="2.835" transform="translate(10.192 357.049) rotate(-34.363)" fill="#254653"/>
  </g>
</svg>
